<?xml version="1.0" standalone="no"?>
<svg xmlns="http://www.w3.org/2000/svg" viewBox="0 0 126.48 36" width="126.48" height="36"><g fill="#ff8686" color="#ff8686" transform="translate(0 3.9999999999999982) scale(0.2800001)"><svg width="100.0" height="100.0" x="0.0" y="0.0" viewBox="0 0 100 100"><path fill="none" d="M73.385,12.678c2.874,0.319,5.673,1.457,8.016,3.423C79.059,14.134,76.26,12.997,73.385,12.678z"></path><path fill="none" d="M28.268,86.167c0.252,0,0.503-0.022,0.755-0.035c-0.271,0.014-0.542,0.033-0.813,0.032  C28.229,86.164,28.249,86.167,28.268,86.167z"></path><g><circle cx="35.645" cy="63.496" r="1.395"></circle><path d="M82.375,16.994c-0.314-0.315-0.64-0.613-0.975-0.894c-2.343-1.966-5.142-3.104-8.016-3.423   c-0.076-0.008-0.152-0.025-0.229-0.033c-0.205-0.02-0.412-0.018-0.618-0.029c-0.275-0.015-0.551-0.04-0.828-0.04   c-0.322,0-0.644,0.025-0.965,0.046c-0.16,0.01-0.32,0.008-0.48,0.023c-0.294,0.028-0.585,0.082-0.877,0.127   c-0.186,0.029-0.373,0.044-0.558,0.08c-0.287,0.056-0.569,0.136-0.853,0.208c-0.187,0.047-0.376,0.082-0.561,0.137   c-0.3,0.088-0.592,0.203-0.886,0.31c-0.165,0.06-0.333,0.107-0.496,0.173c-0.156,0.063-0.308,0.146-0.462,0.214   c-1.641,0.731-3.182,1.753-4.527,3.099c0,0,0,0-0.001,0.001L49.998,28.041L28.667,49.372l-11.23,11.23l0.009,0.008   c-5.711,5.904-5.661,15.314,0.169,21.145c0.366,0.366,0.747,0.709,1.14,1.03c0.12,0.098,0.248,0.179,0.369,0.272   c0.278,0.213,0.555,0.429,0.844,0.62c0.161,0.106,0.329,0.193,0.493,0.293c0.26,0.157,0.517,0.322,0.784,0.463   c0.188,0.1,0.382,0.178,0.573,0.269c0.251,0.119,0.5,0.246,0.756,0.351c0.209,0.086,0.425,0.15,0.637,0.227   c0.244,0.087,0.486,0.183,0.734,0.256c0.226,0.067,0.456,0.114,0.684,0.171c0.24,0.06,0.478,0.128,0.72,0.176   c0.235,0.046,0.472,0.071,0.708,0.106c0.239,0.035,0.477,0.08,0.717,0.104c0.24,0.023,0.481,0.027,0.722,0.039   c0.238,0.013,0.476,0.033,0.715,0.034c0.271,0.001,0.542-0.019,0.813-0.032c0.204-0.011,0.407-0.011,0.61-0.028   c0.271-0.025,0.54-0.071,0.81-0.11c0.202-0.029,0.405-0.048,0.605-0.086c0.267-0.05,0.529-0.121,0.793-0.186   c0.201-0.049,0.403-0.087,0.602-0.144c0.263-0.075,0.52-0.173,0.778-0.263c0.195-0.067,0.394-0.125,0.586-0.2   c0.26-0.104,0.514-0.229,0.769-0.346c0.185-0.086,0.373-0.159,0.555-0.252c0.261-0.134,0.514-0.291,0.769-0.44   c0.167-0.099,0.34-0.186,0.504-0.291c0.272-0.174,0.532-0.372,0.795-0.566c0.138-0.102,0.282-0.191,0.418-0.299   c0.393-0.311,0.773-0.643,1.141-0.998l0.008,0.009l11.23-11.23l21.33-21.33l11.047-11.046c0-0.001,0-0.001,0.001-0.001   C88.266,32.434,88.266,22.884,82.375,16.994z M23.561,62.848c-0.913,0.91-2.281,1.017-3.054,0.24   c-0.774-0.779-0.661-2.146,0.253-3.055l2.369-2.359c0.912-0.908,2.28-1.016,3.055-0.238c0.773,0.775,0.659,2.145-0.252,3.053   L23.561,62.848z M41.66,76.286l-2.368,2.36c-0.915,0.909-2.282,1.017-3.058,0.237c-0.771-0.775-0.659-2.142,0.254-3.053   l1.185-1.179c-0.823,0.82-2.156,0.816-2.979-0.008l-9.955-9.998c-0.821-0.824-0.817-2.158,0.007-2.978   c0.824-0.821,2.158-0.818,2.979,0.007l1.968,1.977l2.862,0.07l1.616-1.608c0.79-0.788,2.069-0.784,2.857,0.007   c0.787,0.789,0.785,2.069-0.008,2.856l-1.613,1.606l0.058,2.864l2.216,2.226c0.822,0.824,0.818,2.158-0.007,2.979l1.187-1.181   c0.913-0.907,2.281-1.017,3.054-0.239C42.688,74.011,42.572,75.377,41.66,76.286z M69.851,35.302l-2.861-0.07l-1.614,1.608   c-0.791,0.787-2.069,0.785-2.857-0.006c-0.787-0.79-0.785-2.069,0.007-2.857l1.614-1.608l-0.058-2.861l-2.217-2.227   c-0.819-0.823-0.818-2.153,0.003-2.974l-1.182,1.176c-0.914,0.907-2.282,1.016-3.055,0.239c-0.773-0.777-0.658-2.145,0.254-3.054   l2.368-2.36c0.915-0.909,2.28-1.017,3.058-0.238c0.772,0.775,0.658,2.142-0.254,3.052l-1.18,1.175   c0.823-0.815,2.153-0.812,2.973,0.012l9.955,9.999c0.822,0.825,0.818,2.159-0.006,2.978c-0.824,0.821-2.158,0.819-2.98-0.005   L69.851,35.302z M78.786,38.921l-2.37,2.359c-0.911,0.909-2.281,1.016-3.056,0.239c-0.772-0.775-0.659-2.145,0.253-3.053   l2.369-2.359c0.914-0.909,2.281-1.017,3.055-0.24C79.813,36.644,79.699,38.011,78.786,38.921z"></path><path d="M62.916,34.469c-0.548,0.544-0.551,1.428-0.005,1.974c0.544,0.546,1.427,0.547,1.974,0.003   c0.543-0.544,0.545-1.427,0.002-1.972C64.345,33.929,63.461,33.927,62.916,34.469z"></path></g></svg></g><path fill="#fe0b01" fill-rule="nonzero" d="M2.81 16.94L0.10 16.94Q0 16.94 0 16.82L0 16.82L0.02 0.34Q0.02 0.24 0.14 0.24L0.14 0.24L2.81 0.24Q2.93 0.24 2.93 0.34L2.93 0.34L2.90 6.86L6.50 6.86L6.50 0.34Q6.50 0.24 6.60 0.24L6.60 0.24L9.26 0.24Q9.38 0.24 9.38 0.34L9.38 0.34L9.43 16.82Q9.43 16.94 9.31 16.94L9.31 16.94L6.62 16.94Q6.50 16.94 6.50 16.82L6.50 16.82L6.50 9.77L2.90 9.77L2.90 16.82Q2.90 16.94 2.81 16.94L2.81 16.94ZM16.39 16.94L13.63 16.94Q13.56 16.94 13.56 16.85L13.56 16.85L13.58 10.03L10.37 0.34Q10.34 0.24 10.44 0.24L10.44 0.24L13.10 0.24Q13.22 0.24 13.25 0.34L13.25 0.34L15.02 6.79L16.82 0.34Q16.85 0.24 16.94 0.24L16.94 0.24L19.63 0.24Q19.73 0.24 19.70 0.34L19.70 0.34L16.46 9.94L16.49 16.85Q16.49 16.94 16.39 16.94L16.39 16.94ZM23.83 16.94L21.14 16.94Q21.02 16.94 21.02 16.82L21.02 16.82L21.07 0.34Q21.07 0.24 21.17 0.24L21.17 0.24L25.78 0.24Q27.98 0.24 29.27 1.58Q30.55 2.93 30.55 5.23L30.55 5.23Q30.55 6.94 29.88 8.18Q29.21 9.43 28.13 10.10Q27.05 10.78 25.78 10.78L25.78 10.78L23.95 10.78L23.95 16.82Q23.95 16.94 23.83 16.94L23.83 16.94ZM23.95 3.12L23.95 7.87L25.78 7.87Q26.54 7.87 27.11 7.14Q27.67 6.41 27.67 5.23L27.67 5.23Q27.67 4.30 27.17 3.70Q26.66 3.10 25.78 3.10L25.78 3.10L23.95 3.12ZM40.03 16.94L32.28 16.94Q32.18 16.94 32.18 16.82L32.18 16.82L32.21 0.34Q32.21 0.24 32.30 0.24L32.30 0.24L40.01 0.24Q40.10 0.24 40.10 0.36L40.10 0.36L40.10 3.05Q40.10 3.14 40.01 3.14L40.01 3.14L35.09 3.14L35.09 6.89L40.01 6.89Q40.10 6.89 40.10 6.98L40.10 6.98L40.13 9.70Q40.13 9.79 40.03 9.79L40.03 9.79L35.09 9.79L35.09 13.99L40.03 13.99Q40.13 13.99 40.13 14.11L40.13 14.11L40.13 16.85Q40.13 16.94 40.03 16.94L40.03 16.94ZM46.20 17.18L46.20 17.18Q44.90 17.18 43.84 16.52Q42.77 15.86 42.13 14.77Q41.50 13.68 41.50 12.36L41.50 12.36L41.50 11.26Q41.50 11.14 41.62 11.14L41.62 11.14L44.30 11.14Q44.40 11.14 44.40 11.26L44.40 11.26L44.40 12.36Q44.40 13.15 44.93 13.72Q45.46 14.28 46.20 14.28L46.20 14.28Q46.94 14.28 47.47 13.70Q48 13.13 48 12.36L48 12.36Q48 11.47 46.85 10.82L46.85 10.82Q46.46 10.61 45.65 10.15Q44.83 9.70 44.11 9.29L44.11 9.29Q42.79 8.52 42.16 7.36Q41.52 6.19 41.52 4.73L41.52 4.73Q41.52 3.38 42.17 2.32Q42.82 1.25 43.88 0.62Q44.95 0 46.20 0L46.20 0Q47.47 0 48.54 0.64Q49.61 1.27 50.24 2.34Q50.88 3.41 50.88 4.73L50.88 4.73L50.88 6.70Q50.88 6.79 50.78 6.79L50.78 6.79L48.10 6.79Q48 6.79 48 6.70L48 6.70L47.98 4.73Q47.98 3.89 47.45 3.36Q46.92 2.83 46.20 2.83L46.20 2.83Q45.46 2.83 44.93 3.40Q44.40 3.96 44.40 4.73L44.40 4.73Q44.40 5.52 44.74 6.05Q45.07 6.58 45.96 7.06L45.96 7.06Q46.08 7.13 46.43 7.31Q46.78 7.49 47.18 7.72Q47.59 7.94 47.92 8.11Q48.24 8.28 48.31 8.33L48.31 8.33Q49.51 9 50.21 9.97Q50.90 10.94 50.90 12.36L50.90 12.36Q50.90 13.73 50.27 14.82Q49.63 15.91 48.56 16.55Q47.50 17.18 46.20 17.18ZM55.39 16.94L52.68 16.94Q52.58 16.94 52.58 16.82L52.58 16.82L52.63 0.36Q52.63 0.24 52.73 0.24L52.73 0.24L55.42 0.24Q55.51 0.24 55.51 0.36L55.51 0.36L55.51 6.05L59.28 0.34Q59.35 0.24 59.45 0.24L59.45 0.24L62.21 0.24Q62.30 0.24 62.26 0.34L62.26 0.34L58.10 6.96L62.76 16.85Q62.81 16.94 62.64 16.94L62.64 16.94L59.71 16.94Q59.59 16.94 59.57 16.85L59.57 16.85L56.33 9.79L55.49 11.11L55.49 16.82Q55.49 16.94 55.39 16.94L55.39 16.94ZM63.02 16.82L63.02 16.82L66 0.34Q66.02 0.24 66.12 0.24L66.12 0.24L69.60 0.24Q69.70 0.24 69.72 0.34L69.72 0.34L72.58 16.82Q72.60 16.94 72.48 16.94L72.48 16.94L69.82 16.94Q69.72 16.94 69.70 16.82L69.70 16.82L69.43 15.07L66.17 15.07L65.90 16.82Q65.88 16.94 65.78 16.94L65.78 16.94L63.12 16.94Q63.02 16.94 63.02 16.82ZM67.73 5.76L66.65 12.50L68.95 12.50L67.97 5.76L67.82 4.87L67.73 5.76ZM78.05 16.94L75.34 16.94Q75.24 16.94 75.24 16.82L75.24 16.82L75.24 3.14L72.12 3.14Q72 3.14 72 3.02L72 3.02L72.02 0.34Q72.02 0.24 72.12 0.24L72.12 0.24L81.24 0.24Q81.36 0.24 81.36 0.34L81.36 0.34L81.36 3.02Q81.36 3.14 81.26 3.14L81.26 3.14L78.12 3.14L78.14 16.82Q78.14 16.94 78.05 16.94L78.05 16.94ZM90.38 16.94L82.63 16.94Q82.54 16.94 82.54 16.82L82.54 16.82L82.56 0.34Q82.56 0.24 82.66 0.24L82.66 0.24L90.36 0.24Q90.46 0.24 90.46 0.36L90.46 0.36L90.46 3.05Q90.46 3.14 90.36 3.14L90.36 3.14L85.44 3.14L85.44 6.89L90.36 6.89Q90.46 6.89 90.46 6.98L90.46 6.98L90.48 9.70Q90.48 9.79 90.38 9.79L90.38 9.79L85.44 9.79L85.44 13.99L90.38 13.99Q90.48 13.99 90.48 14.11L90.48 14.11L90.48 16.85Q90.48 16.94 90.38 16.94L90.38 16.94Z" transform="translate(36, 9.528)"></path></svg>